<?xml version="1.0" encoding="utf-8"?>
<!-- Generator: Adobe Illustrator 23.0.2, SVG Export Plug-In . SVG Version: 6.00 Build 0)  -->
<svg version="1.1" id="圖層_1" xmlns="http://www.w3.org/2000/svg" xmlns:xlink="http://www.w3.org/1999/xlink" x="0px" y="0px"
	 viewBox="0 0 30 30" style="enable-background:new 0 0 30 30;" xml:space="preserve">
<style type="text/css">
	.st0{fill:#FFFFFF;}
	.st1{fill:#3F3A3A;}
</style>
<rect class="st0" width="30" height="30"/>
<g>
	<g>
		<path class="st1" d="M25.2,25.4H10.3c-1,0-1.9-0.7-2.1-1.7L4.6,4.5C4.3,3.7,4.2,3.1,1.3,3.4c-0.5,0-0.9-0.3-0.9-0.7
			c0-0.5,0.3-0.9,0.7-0.9C4.3,1.4,5.6,2,6.2,4.1l3.6,19.2c0,0.2,0.2,0.4,0.5,0.4h14.9c0.5,0,0.8,0.4,0.8,0.8S25.6,25.4,25.2,25.4z"
			/>
	</g>
	<g>
		<path class="st1" d="M24.5,21.9h-16C8,21.9,8,21.4,8,21c0-0.5,0.1-0.7,0.5-0.7h16c0.3,0,0.6-0.2,0.7-0.5l2.7-11.2
			c0.1-0.2,0-0.4-0.1-0.6c-0.1-0.2-0.3-0.3-0.5-0.3H5.9C5.4,7.6,5.2,7.4,5.2,6.9C5.2,6.5,5.4,6,5.9,6h21.4c0.7,0,1.4,0.3,1.8,0.9
			s0.6,1.3,0.4,2l-2.7,11.2C26.6,21.2,25.6,21.9,24.5,21.9z"/>
	</g>
	<circle class="st1" cx="10.1" cy="27.8" r="1.5"/>
	<circle class="st1" cx="23.5" cy="27.8" r="1.5"/>
</g>
</svg>
