<?xml version="1.0" encoding="utf-8"?>
<!-- Generator: Adobe Illustrator 23.0.2, SVG Export Plug-In . SVG Version: 6.00 Build 0)  -->
<svg version="1.1" id="圖層_1" xmlns="http://www.w3.org/2000/svg" xmlns:xlink="http://www.w3.org/1999/xlink" x="0px" y="0px"
	 viewBox="0 0 30 30" style="enable-background:new 0 0 30 30;" xml:space="preserve">
<style type="text/css">
	.st0{fill:#FFFFFF;}
	.st1{display:none;}
	.st2{display:inline;fill-rule:evenodd;clip-rule:evenodd;fill:#EA5504;}
	.st3{fill:none;stroke:#FFFFFF;stroke-width:1.4;stroke-linecap:round;stroke-miterlimit:10;}
	.st4{fill:none;stroke:#FFFFFF;stroke-width:1.4;stroke-linecap:round;stroke-linejoin:round;stroke-miterlimit:10;}
</style>
<circle class="st0" cx="9.9" cy="26.8" r="1.4"/>
<circle class="st0" cx="22.4" cy="26.8" r="1.4"/>
<g class="st1">
	<path class="st2" d="M15,3C8.6,3,3.4,8.2,3.4,14.7S8.6,26.3,15,26.3s11.6-5.2,11.6-11.6S21.4,3,15,3 M15,27.7c-7.2,0-13-5.8-13-13
		s5.8-13,13-13s13,5.8,13,13S22.2,27.7,15,27.7"/>
	<path class="st2" d="M15.4,6.5C13.6,6.5,12,8,12,9.9c0,1.9,1.5,3.4,3.4,3.4s3.4-1.5,3.4-3.4C18.8,8,17.3,6.5,15.4,6.5 M15.4,14.7
		c-2.6,0-4.8-2.1-4.8-4.8c0-2.6,2.1-4.8,4.8-4.8c2.6,0,4.8,2.1,4.8,4.8C20.2,12.5,18.1,14.7,15.4,14.7 M19.5,26.8
		c-0.4,0-0.7-0.3-0.7-0.7v-5.9c0-1.8-1.5-3.3-3.4-3.3c-1.9,0-3.4,1.5-3.4,3.3v5.9c0,0.4-0.3,0.7-0.7,0.7c-0.4,0-0.7-0.3-0.7-0.7
		v-5.9c0-2.6,2.1-4.7,4.8-4.7c2.6,0,4.8,2.1,4.8,4.7v5.9C20.2,26.5,19.9,26.8,19.5,26.8"/>
</g>
<path class="st3" d="M2.1,3.6h1.7c0.9,0,1.7,0.6,1.8,1.5l3.2,17.5c0.2,0.9,0.9,1.5,1.8,1.5h13.3"/>
<path class="st4" d="M6.2,7.8L26,7.7c0.9,0,1.5,0.8,1.3,1.6l-2.8,11.5H8.6"/>
</svg>
