<?xml version="1.0" encoding="utf-8"?>
<!-- Generator: Adobe Illustrator 22.0.1, SVG Export Plug-In . SVG Version: 6.00 Build 0)  -->
<svg version="1.1" id="圖層_1" xmlns="http://www.w3.org/2000/svg" xmlns:xlink="http://www.w3.org/1999/xlink" x="0px" y="0px"
	 viewBox="0 0 30 30" style="enable-background:new 0 0 30 30;" xml:space="preserve">
<style type="text/css">
	.st0{fill:#FFFFFF;}
	.st1{fill:#3F3A3A;}
</style>
<rect x="0" class="st0" width="30" height="30"/>
<g>
	<path class="st1" d="M15,1.8C7.7,1.8,1.8,7.7,1.8,15S7.7,28.2,15,28.2S28.2,22.3,28.2,15S22.3,1.8,15,1.8 M15,29.7
		C6.9,29.7,0.3,23.1,0.3,15S6.9,0.3,15,0.3S29.7,6.9,29.7,15S23.1,29.7,15,29.7"/>
	<path class="st1" d="M15,5.7c-2.1,0-3.8,1.7-3.8,3.8s1.7,3.8,3.8,3.8s3.8-1.7,3.8-3.8S17.1,5.7,15,5.7 M15,14.9
		c-3,0-5.4-2.4-5.4-5.4S12,4.1,15,4.1s5.4,2.4,5.4,5.4S18,14.9,15,14.9 M19.6,28.9c-0.4,0-0.8-0.3-0.8-0.8l0,0v-6.8
		c0-2.1-1.7-3.8-3.8-3.8s-3.8,1.7-3.8,3.8v6.8c0,0.4-0.3,0.8-0.7,0.8s-0.8-0.3-0.8-0.7c0,0,0,0,0-0.1v-6.8c0-3,2.4-5.4,5.4-5.4
		s5.4,2.4,5.4,5.4v6.8C20.4,28.6,20,28.9,19.6,28.9"/>
</g>
</svg>
