<?xml version="1.0" encoding="utf-8"?>
<!-- Generator: Adobe Illustrator 23.0.2, SVG Export Plug-In . SVG Version: 6.00 Build 0)  -->
<svg version="1.1" id="圖層_1" xmlns="http://www.w3.org/2000/svg" xmlns:xlink="http://www.w3.org/1999/xlink" x="0px" y="0px"
	 viewBox="0 0 30 30" style="enable-background:new 0 0 30 30;" xml:space="preserve">
<style type="text/css">
	.st0{fill:#000333;}
</style>
<g>
	<path class="st0" d="M12.54,22.8c-6.05,0-10.98-4.93-10.98-10.98c0-6.05,4.93-10.98,10.98-10.98c6.05,0,10.98,4.93,10.98,10.98
		C23.52,17.88,18.59,22.8,12.54,22.8z M12.54,2.34c-5.23,0-9.48,4.25-9.48,9.48c0,5.23,4.25,9.48,9.48,9.48
		c5.23,0,9.48-4.25,9.48-9.48C22.02,6.59,17.77,2.34,12.54,2.34z"/>
</g>
<g>
	<path class="st0" d="M28.59,28.53c-0.2,0-0.4-0.08-0.54-0.23l-8.55-9.01c-0.29-0.3-0.27-0.78,0.03-1.06
		c0.3-0.29,0.77-0.28,1.06,0.03l8.55,9.01c0.29,0.3,0.27,0.78-0.03,1.06C28.96,28.46,28.77,28.53,28.59,28.53z"/>
</g>
</svg>
