<?xml version="1.0" encoding="utf-8"?>
<!-- Generator: Adobe Illustrator 22.0.1, SVG Export Plug-In . SVG Version: 6.00 Build 0)  -->
<svg version="1.1" id="圖層_1" xmlns="http://www.w3.org/2000/svg" xmlns:xlink="http://www.w3.org/1999/xlink" x="0px" y="0px"
	 viewBox="0 0 40 40" style="enable-background:new 0 0 40 40;" xml:space="preserve">
<style type="text/css">
	.st0{fill:#FFFFFF;}
	.st1{fill:#3F3A3A;}
</style>
<rect class="st0" width="40" height="40"/>
<polygon class="st1" points="18,2.1 18,2.9 13.2,2.9 13.2,19.8 26.8,19.8 26.8,2.9 22,2.9 22,2.1 39,2.1 39,2.9 34.3,2.9 34.3,38.3 
	39,38.3 39,39 22,39 22,38.3 26.8,38.3 26.8,20.6 13.2,20.6 13.2,38.3 18,38.3 18,39 1,39 1,38.3 5.7,38.3 5.7,2.9 1,2.9 1,2.1 "/>
</svg>
