<?xml version="1.0" encoding="utf-8"?>
<!-- Generator: Adobe Illustrator 22.0.1, SVG Export Plug-In . SVG Version: 6.00 Build 0)  -->
<svg version="1.1" id="圖層_1" xmlns="http://www.w3.org/2000/svg" xmlns:xlink="http://www.w3.org/1999/xlink" x="0px" y="0px"
	 viewBox="0 0 35 40" style="enable-background:new 0 0 35 40;" xml:space="preserve">
<style type="text/css">
	.st0{fill:#3F3A3A;}
</style>
<path class="st0" d="M11.8,2.9c-1.3,0-2.4,0.1-3.4,0.4C7.4,3.6,6.6,4,5.7,4.6C4.9,5.3,4.3,6.1,3.6,7.3s-1.2,2.6-1.7,4.3H1.3V2.1
	h32.5v9.5h-0.7c-0.5-1.8-1.1-3.2-1.7-4.3c-0.6-1.2-1.4-2-2.1-2.6c-0.8-0.6-1.7-1.1-2.7-1.4s-2.2-0.4-3.4-0.4h-1.8v35.4h4.7V39H8.9
	v-0.7h4.7V2.9H11.8z"/>
</svg>
