<?xml version="1.0" encoding="utf-8"?>
<!-- Generator: Adobe Illustrator 22.0.1, SVG Export Plug-In . SVG Version: 6.00 Build 0)  -->
<svg version="1.1" id="圖層_1" xmlns="http://www.w3.org/2000/svg" xmlns:xlink="http://www.w3.org/1999/xlink" x="0px" y="0px"
	 viewBox="0 0 50 60" style="enable-background:new 0 0 50 60;" xml:space="preserve">
<style type="text/css">
	.st0{fill:#FFFFFF;}
	.st1{fill:#3F3A3A;}
</style>
<rect class="st0" width="49.6" height="60"/>
<g transform="translate(2 6.102)">
	<path class="st1" d="M9.7,30.5c0.1,0.4,0.2,0.9,0.3,1.6c0.2,0.7,0.4,1.4,0.7,2.2c0.3,0.8,0.7,1.6,1.2,2.4s1.2,1.6,1.8,2.2
		c0.8,0.8,1.6,1.4,2.3,1.8c0.7,0.4,1.4,0.7,2.1,0.9c0.6,0.2,1.3,0.3,1.9,0.3c0.5,0,1.2,0,1.7,0c1.8,0,3.3-0.3,4.5-0.9
		c1.2-0.5,2.1-1.3,2.8-2.1c0.7-0.8,1.2-1.7,1.4-2.6c0.3-0.9,0.4-1.7,0.4-2.4c0-1.3-0.3-2.3-0.9-3.2c-0.6-0.8-1.4-1.5-2.4-2.1
		c-1-0.5-2.2-1-3.4-1.4s-2.6-0.7-3.9-1.2s-2.6-0.9-3.9-1.4c-1.2-0.5-2.4-1.2-3.4-2.1c-1-0.8-1.8-1.9-2.4-3.1
		c-0.5-1.2-0.8-2.8-0.8-4.7c0-1.4,0.3-2.7,0.9-4c0.6-1.3,1.5-2.4,2.6-3.4s2.5-1.7,4-2.3c1.6-0.6,3.2-0.9,5-0.9c1.2,0,2.2,0.1,3,0.3
		c0.9,0.2,1.6,0.4,2.3,0.7c0.6,0.2,1.2,0.4,1.8,0.7c0.5,0.2,0.9,0.3,1.4,0.3s0.8-0.1,0.9-0.2s0.3-0.5,0.5-0.9h0.8v9.8h-0.7
		c-0.4-1.2-0.9-2.3-1.3-3.5c-0.5-1.2-1-2.2-1.7-3.2c-0.7-0.9-1.7-1.8-2.7-2.3c-1.1-0.6-2.5-0.9-4.2-0.9c-1.4,0-2.6,0.2-3.7,0.5
		c-1.1,0.4-2,0.9-2.6,1.5c-0.8,0.6-1.3,1.3-1.7,2.1c-0.3,0.8-0.5,1.5-0.5,2.3c0,1.2,0.3,2.2,0.9,3c0.6,0.8,1.5,1.5,2.5,2
		c1,0.5,2.2,1.1,3.5,1.5c1.4,0.4,2.7,0.8,4.1,1.3s2.7,0.9,4.1,1.5c1.3,0.5,2.4,1.2,3.5,2c1,0.8,1.9,1.8,2.5,3
		c0.6,1.2,0.9,2.6,0.9,4.3c0,1.7-0.3,3.3-1,4.8s-1.7,2.8-2.9,4c-1.3,1.2-2.8,2-4.5,2.7c-1.8,0.7-3.7,1-5.8,1c-1.1,0-2.1-0.1-3.2-0.3
		s-2-0.4-2.9-0.7c-0.8-0.2-1.6-0.4-2.4-0.7c-0.7-0.1-1.2-0.2-1.5-0.2c-0.5,0-0.8,0.1-1,0.2c-0.2,0.1-0.5,0.4-0.6,0.9H8.9V30.5H9.7
		L9.7,30.5z"/>
</g>
</svg>
