<?xml version="1.0" encoding="utf-8"?>
<!-- Generator: Adobe Illustrator 22.0.1, SVG Export Plug-In . SVG Version: 6.00 Build 0)  -->
<svg version="1.1" id="圖層_1" xmlns="http://www.w3.org/2000/svg" xmlns:xlink="http://www.w3.org/1999/xlink" x="0px" y="0px"
	 viewBox="0 0 35 40" style="enable-background:new 0 0 35 40;" xml:space="preserve">
<style type="text/css">
	.st0{fill:#FFFFFF;}
	.st1{fill:#3F3A3A;}
</style>
<rect class="st0" width="35" height="40"/>
<g transform="translate(2 6.102)">
	<path class="st1" d="M2.8,20.9c0.1,0.4,0.2,0.9,0.3,1.6c0.2,0.7,0.4,1.4,0.7,2.2s0.7,1.6,1.2,2.4s1.2,1.6,1.8,2.2
		c0.8,0.8,1.6,1.4,2.3,1.8s1.4,0.7,2.1,0.9c0.6,0.2,1.3,0.3,1.9,0.3c0.5,0,1.2,0,1.7,0c1.8,0,3.3-0.3,4.5-0.9
		c1.2-0.5,2.1-1.3,2.8-2.1c0.7-0.8,1.2-1.7,1.4-2.6c0.3-0.9,0.4-1.7,0.4-2.4c0-1.3-0.3-2.3-0.9-3.2c-0.6-0.8-1.4-1.5-2.4-2.1
		c-1-0.5-2.2-1-3.4-1.4s-2.6-0.7-3.9-1.2s-2.6-0.9-3.9-1.4C8.2,14.5,7,13.8,6,12.9C5,12.1,4.2,11,3.6,9.8C3.1,8.6,2.8,7,2.8,5.1
		c0-1.4,0.3-2.7,0.9-4s1.5-2.4,2.6-3.4s2.5-1.7,4-2.3c1.6-0.6,3.2-0.9,5-0.9c1.2,0,2.2,0.1,3,0.3c0.9,0.2,1.6,0.4,2.3,0.7
		c0.6,0.2,1.2,0.4,1.8,0.7c0.5,0.2,0.9,0.3,1.4,0.3s0.8-0.1,0.9-0.2c0.1-0.1,0.3-0.5,0.5-0.9H26v9.8h-0.7C24.9,4,24.4,2.9,24,1.7
		c-0.5-1.2-1-2.2-1.7-3.2c-0.7-0.9-1.7-1.8-2.7-2.3c-1.1-0.6-2.5-0.9-4.2-0.9c-1.4,0-2.6,0.2-3.7,0.5c-1.1,0.4-2,0.9-2.6,1.5
		C8.3-2.1,7.8-1.4,7.4-0.6C7.1,0.2,6.9,0.9,6.9,1.7c0,1.2,0.3,2.2,0.9,3s1.5,1.5,2.5,2s2.2,1.1,3.5,1.5c1.4,0.4,2.7,0.8,4.1,1.3
		s2.7,0.9,4.1,1.5c1.3,0.5,2.4,1.2,3.5,2c1,0.8,1.9,1.8,2.5,3s0.9,2.6,0.9,4.3c0,1.7-0.3,3.3-1,4.8s-1.7,2.8-2.9,4
		c-1.3,1.2-2.8,2-4.5,2.7c-1.8,0.7-3.7,1-5.8,1c-1.1,0-2.1-0.1-3.2-0.3s-2-0.4-2.9-0.7c-0.8-0.2-1.6-0.4-2.4-0.7
		C5.5,31,5,30.9,4.7,30.9c-0.5,0-0.8,0.1-1,0.2S3.2,31.5,3.1,32H2V20.9H2.8L2.8,20.9z"/>
</g>
</svg>
