<?xml version="1.0" encoding="utf-8"?>
<!-- Generator: Adobe Illustrator 22.0.1, SVG Export Plug-In . SVG Version: 6.00 Build 0)  -->
<svg version="1.1" id="圖層_1" xmlns="http://www.w3.org/2000/svg" xmlns:xlink="http://www.w3.org/1999/xlink" x="0px" y="0px"
	 viewBox="0 0 35 40" style="enable-background:new 0 0 35 40;" xml:space="preserve">
<style type="text/css">
	.st0{fill:#3F3A3A;}
</style>
<path class="st0" d="M1.3,2.1v9.5h0.6c0.5-1.7,1-3.1,1.7-4.3c0.7-1.2,1.3-2,2.1-2.7c0.9-0.6,1.7-1,2.7-1.3s2.1-0.4,3.4-0.4h1.8v35.4
	H8.9V39h17.2v-0.7h-4.7V2.9h1.8c1.2,0,2.4,0.1,3.4,0.4s1.9,0.8,2.7,1.4c0.7,0.6,1.5,1.4,2.1,2.6c0.6,1.1,1.2,2.5,1.7,4.3h0.7V2.1
	H1.3z"/>
</svg>
